<svg width="48" height="48" viewBox="0 0 48 48" fill="none" xmlns="http://www.w3.org/2000/svg">
<path d="M45.9 18.75C43.5 8.85 34.65 1.5 24 1.5H23.25V18.75H45.9ZM12.75 4.5C7.50004 7.575 3.60004 12.675 2.10004 18.75H12.75V4.5ZM2.10004 29.25C3.60004 35.325 7.50004 40.425 12.75 43.5V29.25H2.10004ZM23.25 46.5H24C34.65 46.5 43.5 39.15 45.9 29.25H23.25V46.5Z" fill="#428BC1"/>
<path d="M45.9 18.75H23.25V1.5C19.425 1.65 15.825 2.7 12.75 4.5V18.75H2.1C1.725 20.4 1.5 22.2 1.5 24C1.5 25.8 1.725 27.6 2.1 29.25H12.75V43.5C15.825 45.3 19.425 46.35 23.25 46.5V29.25H45.9C46.275 27.6 46.5 25.8 46.5 24C46.5 22.2 46.275 20.4 45.9 18.75Z" fill="#FFE62E"/>
</svg>
